<svg width="54" height="54" viewBox="0 0 54 54" fill="none" xmlns="http://www.w3.org/2000/svg">
<path d="M9.49999 49.4883V41.5015C9.49999 38.6408 8.75086 37.1538 7.27834 34.6675C5.51317 31.6874 4.5 28.2094 4.5 24.4948C4.5 13.452 13.4543 4.5 24.5 4.5C35.5457 4.5 44.5 13.452 44.5 24.4948C44.5 25.7992 44.5001 26.4515 44.5545 26.8171C44.6846 27.6912 45.0925 28.4431 45.4937 29.2214L49.5 36.9916L46.3513 38.5654C45.4387 39.0215 44.9827 39.2497 44.6647 39.6706C44.3468 40.0914 44.2575 40.5666 44.0784 41.5168L44.0608 41.6095C43.6509 43.7863 43.1984 46.1894 41.924 47.7054C41.474 48.2407 40.9169 48.6756 40.2883 48.9823C39.2506 49.4883 37.9748 49.4883 35.4233 49.4883C34.2428 49.4883 33.0588 49.5155 31.8784 49.4869C29.0806 49.4188 27 47.0664 27 44.3349" stroke="black" stroke-width="3.5" stroke-linecap="round" stroke-linejoin="round"/>
<path d="M32.373 23.6959C31.4138 23.6959 30.539 23.3329 29.8764 22.7358M32.373 23.6959C32.373 26.2741 30.8792 28.723 28.0037 28.723C25.1282 28.723 23.6347 31.1717 23.6347 33.75M32.373 23.6959C37.2089 23.6959 37.2089 16.1554 32.373 16.1554C31.9336 16.1554 31.5119 16.2316 31.1202 16.3715C31.3564 10.7509 23.2535 9.225 21.4183 14.4904M21.4183 14.4904C22.7549 15.3925 23.6347 16.9273 23.6347 18.6689M21.4183 14.4904C17.2517 11.6783 11.6974 16.7245 14.3398 21.2237C9.90508 21.8886 10.3792 28.723 14.8961 28.723C16.1627 28.723 17.2825 28.0899 17.9603 27.121" stroke="black" stroke-width="3.5" stroke-linecap="round" stroke-linejoin="round"/>
</svg>
